Coordinates
version=1
nRows=6
nColumns=63
inDegrees=yes

Units are S.I. units (second, meters, Newtons, ...)
If the header above contains a line with 'inDegrees', this indicates whether rotational values are in degrees (yes) or radians (no).

endheader
time	pelvis_tilt	pelvis_list	pelvis_rotation	pelvis_tx	pelvis_ty	pelvis_tz	hip_flexion_r	hip_adduction_r	hip_rotation_r	knee_angle_r	knee_angle_r_beta	ankle_angle_r	subtalar_angle_r	mtp_angle_r	hip_flexion_l	hip_adduction_l	hip_rotation_l	knee_angle_l	knee_angle_l_beta	ankle_angle_l	subtalar_angle_l	mtp_angle_l	L5_S1_Flex_Ext	L5_S1_Lat_Bending	L5_S1_axial_rotation	L4_L5_Flex_Ext	L4_L5_Lat_Bending	L4_L5_axial_rotation	L3_L4_Flex_Ext	L3_L4_Lat_Bending	L3_L4_axial_rotation	L2_L3_Flex_Ext	L2_L3_Lat_Bending	L2_L3_axial_rotation	L1_L2_Flex_Ext	L1_L2_Lat_Bending	L1_L2_axial_rotation	L1_T12_Flex_Ext	L1_T12_Lat_Bending	L1_T12_axial_rotation	Abs_r3	Abs_r2	Abs_r1	Abs_t1	Abs_t2	neck_flexion	neck_bending	neck_rotation	arm_flex_r	arm_add_r	arm_rot_r	elbow_flex_r	pro_sup_r	wrist_flex_r	wrist_dev_r	arm_flex_l	arm_add_l	arm_rot_l	elbow_flex_l	pro_sup_l	wrist_flex_l	wrist_dev_l
      0.95454545	     -1.58348412	     -7.13293181	     94.13880106	      0.29097438	      0.81776323	      0.79212990	      5.42995963	     -1.14674189	     16.82209030	      1.12505176	      0.01963586	     24.00860674	     -7.97904458	      0.00000000	      7.35389715	     -0.34273355	      6.24930532	      2.73369361	      0.04771195	     26.39209895	     -7.50884829	      0.00000000	     -0.05386243	      0.03693000	      1.06819376	     -0.10002792	      0.04911690	      1.13495587	     -0.08849059	      0.08979160	      1.13495587	     -0.06155937	      0.08979160	      0.93466954	     -0.05001665	      0.07530766	      0.86790743	     -0.03077699	      0.05720457	      0.80114532	     -0.38473396	      0.41775956	      5.94097325	      0.00000000	      0.00000000	     16.38705192	     -3.44202064	    -10.40372485	      0.49357439	    -12.93057692	     28.96527120	     66.70057019	     72.20649049	     -3.40434273	      3.16919890	     11.08615237	     -7.72599921	     44.68702545	     62.40401826	     57.94149652	      3.84101261	     13.08438903
      0.97727273	     -1.59792515	     -7.26248609	     94.13570288	      0.29096568	      0.81755116	      0.79348847	      5.64225174	     -1.18499889	     16.81808484	      1.16657558	      0.02036058	     23.90041920	     -7.96185157	      0.00000000	      7.56923133	     -0.31461081	      6.28525398	      2.74101938	      0.04783981	     26.39964561	     -7.47571205	      0.00000000	     -0.08535556	      0.03763835	      1.07701919	     -0.15851382	      0.05005901	      1.14433289	     -0.14023066	      0.09151389	      1.14433289	     -0.09755287	      0.09151389	      0.94239179	     -0.07926118	      0.07675213	      0.87507810	     -0.04877217	      0.05830181	      0.80776440	     -0.60968626	      0.42577257	      5.99005765	      0.00000000	      0.00000000	     16.18239239	     -3.43996207	    -10.41424498	      0.42507155	    -12.98341289	     29.00370205	     66.74693308	     72.20559878	     -3.41778521	      3.11043373	     11.22766910	     -7.75031090	     44.68101338	     62.51103287	     58.01193725	      3.87119732	     12.98728860
      1.00000000	     -1.59143210	     -7.72546559	     93.99157599	      0.29103805	      0.81701766	      0.79483508	      6.32888840	     -1.19157660	     16.75113771	      1.39929384	      0.02442228	     23.90627909	     -7.90737692	      0.00000000	      8.29187112	     -0.28593299	      5.90990761	      3.17707073	      0.05545034	     26.56239959	     -7.24100186	      0.00000000	     -0.04153436	      0.03412758	      1.18569497	     -0.07713345	      0.04538968	      1.25980091	     -0.06823680	      0.08297779	      1.25980091	     -0.04746962	      0.08297779	      1.03748310	     -0.03856880	      0.06959296	      0.96337717	     -0.02373273	      0.05286362	      0.88927123	     -0.29667576	      0.38605799	      6.59447973	      0.00000000	      0.00000000	     15.36317096	     -3.69081230	    -11.27406842	      0.10824862	    -13.18100101	     29.14701980	     66.76158907	     71.92953407	     -4.51365311	      2.05140540	     11.69357656	     -7.72936916	     45.64376693	     62.06673308	     60.03463419	      4.12324989	     11.55187822
      1.02272727	     -1.56916511	     -7.84451771	     94.01616943	      0.29091376	      0.81675784	      0.79643334	      6.56097268	     -1.21477385	     16.74245256	      1.37639878	      0.02402269	     23.93060378	     -7.92199574	      0.00000000	      8.49085657	     -0.27693231	      5.92682851	      3.18435464	      0.05557747	     26.53368437	     -7.21499897	      0.00000000	     -0.07419883	      0.03853307	      1.19799994	     -0.13779465	      0.05124898	      1.27287494	     -0.12190126	      0.09368930	      1.27287494	     -0.08480185	      0.09368930	      1.04824995	     -0.06890104	      0.07857663	      0.97337495	     -0.04239721	      0.05968772	      0.89849996	     -0.52999485	      0.43589376	      6.66291627	      0.00000000	      0.00000000	     15.13296766	     -3.64337695	    -11.30450648	      0.20599386	    -13.25579854	     29.07619993	     66.72558558	     71.90604091	     -4.56358790	      2.04596147	     11.81784968	     -7.68894426	     45.62494575	     62.14483956	     60.08957391	      4.12007947	     11.51915455
      1.04545455	     -1.43811342	     -8.37070538	     94.01714979	      0.29080811	      0.81618781	      0.79826940	      7.38533702	     -1.11864650	     16.74449983	      1.62900406	      0.02843148	     23.94012225	     -7.98583946	      0.00000000	      9.39269345	     -0.34288507	      5.52591456	      3.74409529	      0.06534679	     26.70420753	     -6.85815242	      0.00000000	     -0.03679186	      0.03698105	      1.28096534	     -0.06832616	      0.04918480	      1.36102567	     -0.06044535	      0.08991573	      1.36102567	     -0.04204942	      0.08991573	      1.12084467	     -0.03416492	      0.07541176	      1.04078433	     -0.02102287	      0.05728365	      0.96072400	     -0.26280057	      0.41833704	      7.12434490	      0.00000000	      0.00000000	     14.13164100	     -3.73876739	    -12.60799759	      0.07887550	    -13.32781141	     28.98933958	     66.85145082	     70.47234553	     -5.82417171	      1.97422804	     12.06204111	     -7.51297441	     46.19678278	     61.85079316	     62.79739790	      3.23378626	     10.16833126
      1.06818182	     -1.33447503	     -8.83168191	     94.12504555	      0.29060472	      0.81560954	      0.80003327	      8.07141089	     -1.07538175	     16.80700511	      1.74723988	      0.03049509	     23.94378986	     -8.13301012	      0.00000000	     10.11149291	     -0.37295335	      5.25153605	      4.03144976	      0.07036207	     26.76048365	     -6.49253399	      0.00000000	     -0.03278330	      0.03448878	      1.25483747	     -0.06088187	      0.04587007	      1.33326481	     -0.05385969	      0.08385601	      1.33326481	     -0.03746803	      0.08385601	      1.09798279	     -0.03044257	      0.07032951	      1.01955544	     -0.01873238	      0.05342312	      0.94112810	     -0.23416784	      0.39014394	      6.97902955	      0.00000000	      0.00000000	     13.75595011	     -3.63956608	    -12.82871882	      0.39026892	    -13.32020236	     29.20255976	     66.81083845	     68.68052077	     -5.91026135	      2.36996249	     11.87002261	     -7.48776784	     45.95585808	     62.01850157	     64.53973491	      2.11354835	      8.85337966
